<svg id="SvgjsSvg1000" xmlns="http://www.w3.org/2000/svg" version="1.1" xmlns:xlink="http://www.w3.org/1999/xlink" xmlns:svgjs="http://svgjs.com/svgjs" width="36" height="37" viewBox="0 0 36 37"><title>icon plus</title><desc>Created with Avocode.</desc><defs id="SvgjsDefs1001"></defs><path id="SvgjsPath1007" d="M699.893 486.441C699.166 486.441 698.461 486.142 697.9680000000001 485.62899999999996L690.6370000000001 478.318C688.1360000000001 480.049 685.143 480.969 682.1080000000001 480.969C673.792 480.969 667.0590000000001 474.236 667.0590000000001 465.92C667.0590000000001 457.60400000000004 673.792 450.87100000000004 682.1080000000001 450.87100000000004C690.4240000000001 450.87100000000004 697.1560000000001 457.60400000000004 697.1560000000001 465.92C697.1560000000001 468.95500000000004 696.2370000000001 471.94800000000004 694.5060000000001 474.449L701.8370000000001 481.78000000000003C702.3290000000001 482.273 702.6290000000001 482.978 702.6290000000001 483.70500000000004C702.6290000000001 485.22200000000004 701.4100000000001 486.44100000000003 699.8930000000001 486.44100000000003ZM682.108 456.343C676.827 456.343 672.531 460.639 672.531 465.92C672.531 471.2 676.827 475.49600000000004 682.108 475.49600000000004C687.3879999999999 475.49600000000004 691.684 471.20000000000005 691.684 465.92C691.684 460.639 687.3879999999999 456.343 682.108 456.343ZM688.948 465.236C688.948 464.873 688.627 464.55199999999996 688.264 464.55199999999996L683.476 464.55199999999996L683.476 459.763C683.476 459.40099999999995 683.155 459.07899999999995 682.792 459.07899999999995L681.424 459.07899999999995C681.0609999999999 459.07899999999995 680.74 459.40099999999995 680.74 459.763L680.74 464.55199999999996L675.951 464.55199999999996C675.588 464.55199999999996 675.267 464.873 675.267 465.236L675.267 466.604C675.267 466.967 675.5880000000001 467.288 675.951 467.288L680.74 467.288L680.74 472.076C680.74 472.439 681.061 472.76000000000005 681.424 472.76000000000005L682.792 472.76000000000005C683.1550000000001 472.76000000000005 683.476 472.439 683.476 472.076L683.476 467.288L688.264 467.288C688.6270000000001 467.288 688.948 466.967 688.948 466.604Z " fill="#ffffff" fill-opacity="1" transform="matrix(1,0,0,1,-667,-450)"></path></svg>